<mxfile host="app.diagrams.net" modified="2024-02-21T16:19:02.536Z" agent="Mozilla/5.0 (Windows NT 10.0; Win64; x64) AppleWebKit/537.36 (KHTML, like Gecko) Chrome/121.0.0.0 Safari/537.36 Edg/121.0.0.0" version="23.1.5" etag="CZcFL2ez6DQl0V-yDrZ8" type="github">
  <diagram name="Page-1" id="WzMlmcEx0CsBE41WxP_U">
    <mxGraphModel>
      <root>
        <mxCell id="0" />
        <mxCell id="1" parent="0" />
      </root>
    </mxGraphModel>
  </diagram>
</mxfile>
